<svg width="2546" height="506" viewBox="0 0 2546 506" fill="none" xmlns="http://www.w3.org/2000/svg">
<path d="M394.195 367.5V147.72H539.716V152.382H399.523V252.948H512.077V257.61H399.523V362.838H545.377V367.5H394.195ZM751.345 312.555C747.793 324.765 741.91 335.31 733.696 344.19C725.704 352.848 715.825 359.508 704.059 364.17C692.515 368.61 679.306 370.83 664.432 370.83C645.118 370.83 628.135 366.279 613.483 357.177C598.831 347.853 587.398 334.755 579.184 317.883C570.97 301.011 566.863 280.92 566.863 257.61C566.863 234.3 570.859 214.209 578.851 197.337C587.065 180.465 598.498 167.478 613.15 158.376C627.802 149.052 644.896 144.39 664.432 144.39C679.972 144.39 693.403 146.61 704.725 151.05C716.047 155.268 725.482 161.706 733.03 170.364C740.578 178.8 746.128 189.456 749.68 202.332L744.685 204.663C739.135 186.015 729.7 172.14 716.38 163.038C703.282 153.714 685.966 149.052 664.432 149.052C646.006 149.052 629.8 153.492 615.814 162.372C602.05 171.252 591.283 183.795 583.513 200.001C575.965 216.207 572.191 235.41 572.191 257.61C572.191 279.81 576.076 299.013 583.846 315.219C591.616 331.425 602.383 343.968 616.147 352.848C630.133 361.728 646.228 366.168 664.432 366.168C685.522 366.168 703.171 361.284 717.379 351.516C731.587 341.748 741.244 328.095 746.35 310.557L751.345 312.555ZM883.351 144.39C903.997 144.39 921.757 149.052 936.631 158.376C951.727 167.478 963.271 180.465 971.263 197.337C979.477 214.209 983.584 234.3 983.584 257.61C983.584 280.92 979.477 301.011 971.263 317.883C963.271 334.755 951.727 347.853 936.631 357.177C921.757 366.279 903.997 370.83 883.351 370.83C862.927 370.83 845.167 366.279 830.071 357.177C814.975 347.853 803.32 334.755 795.106 317.883C787.114 301.011 783.118 280.92 783.118 257.61C783.118 234.3 787.114 214.209 795.106 197.337C803.32 180.465 814.975 167.478 830.071 158.376C845.167 149.052 862.927 144.39 883.351 144.39ZM883.351 149.052C864.037 149.052 847.276 153.492 833.068 162.372C818.86 171.252 807.871 183.795 800.101 200.001C792.331 216.207 788.446 235.41 788.446 257.61C788.446 279.81 792.331 299.013 800.101 315.219C807.871 331.425 818.86 343.968 833.068 352.848C847.276 361.728 864.037 366.168 883.351 366.168C902.887 366.168 919.648 361.728 933.634 352.848C947.842 343.968 958.831 331.425 966.601 315.219C974.371 299.013 978.256 279.81 978.256 257.61C978.256 235.41 974.371 216.207 966.601 200.001C958.831 183.795 947.842 171.252 933.634 162.372C919.648 153.492 902.887 149.052 883.351 149.052ZM1100.42 144.39C1121.29 144.39 1138.61 148.497 1152.37 156.711C1166.13 164.703 1175.57 177.579 1180.68 195.339L1176.35 198.669C1171.91 181.575 1163.14 169.032 1150.04 161.04C1136.94 153.048 1120.4 149.052 1100.42 149.052C1085.77 149.052 1073.01 151.494 1062.13 156.378C1051.47 161.262 1043.15 167.811 1037.15 176.025C1031.16 184.239 1028.16 193.452 1028.16 203.664C1028.16 216.54 1032.49 226.863 1041.15 234.633C1049.81 242.403 1064.79 248.508 1086.1 252.948L1124.4 260.94C1146.15 265.38 1161.58 271.596 1170.69 279.588C1180.01 287.58 1184.67 298.347 1184.67 311.889C1184.67 323.655 1181.23 333.978 1174.35 342.858C1167.69 351.738 1158.36 358.62 1146.38 363.504C1134.61 368.388 1120.85 370.83 1105.08 370.83C1089.77 370.83 1075.78 368.721 1063.13 364.503C1050.69 360.285 1040.37 353.847 1032.16 345.189C1023.94 336.531 1018.62 325.542 1016.17 312.222L1021.17 309.558C1023.17 322.434 1028.05 333.09 1035.82 341.526C1043.59 349.962 1053.47 356.178 1065.46 360.174C1077.45 364.17 1090.65 366.168 1105.08 366.168C1118.85 366.168 1131.28 364.17 1142.38 360.174C1153.7 355.956 1162.69 349.851 1169.35 341.859C1176.01 333.645 1179.34 323.655 1179.34 311.889C1179.34 300.123 1174.9 290.577 1166.02 283.251C1157.37 275.925 1142.71 270.153 1122.07 265.935L1083.77 257.943C1069.12 254.835 1057.35 250.95 1048.47 246.288C1039.59 241.404 1033.05 235.521 1028.83 228.639C1024.83 221.757 1022.83 213.432 1022.83 203.664C1022.83 193.23 1025.94 183.573 1032.16 174.693C1038.37 165.591 1047.25 158.265 1058.8 152.715C1070.34 147.165 1084.22 144.39 1100.42 144.39ZM1359.55 147.72L1282.29 282.252V367.5H1276.96V282.252L1199.71 147.72H1206.03L1248.99 222.978L1279.63 276.591L1310.26 222.978L1353.22 147.72H1359.55ZM1457.49 144.39C1478.36 144.39 1495.67 148.497 1509.44 156.711C1523.2 164.703 1532.63 177.579 1537.74 195.339L1533.41 198.669C1528.97 181.575 1520.2 169.032 1507.1 161.04C1494.01 153.048 1477.47 149.052 1457.49 149.052C1442.84 149.052 1430.07 151.494 1419.19 156.378C1408.54 161.262 1400.21 167.811 1394.22 176.025C1388.22 184.239 1385.23 193.452 1385.23 203.664C1385.23 216.54 1389.56 226.863 1398.21 234.633C1406.87 242.403 1421.86 248.508 1443.17 252.948L1481.46 260.94C1503.22 265.38 1518.65 271.596 1527.75 279.588C1537.07 287.58 1541.74 298.347 1541.74 311.889C1541.74 323.655 1538.3 333.978 1531.41 342.858C1524.75 351.738 1515.43 358.62 1503.44 363.504C1491.68 368.388 1477.91 370.83 1462.15 370.83C1446.83 370.83 1432.85 368.721 1420.19 364.503C1407.76 360.285 1397.44 353.847 1389.22 345.189C1381.01 336.531 1375.68 325.542 1373.24 312.222L1378.23 309.558C1380.23 322.434 1385.12 333.09 1392.89 341.526C1400.66 349.962 1410.53 356.178 1422.52 360.174C1434.51 364.17 1447.72 366.168 1462.15 366.168C1475.91 366.168 1488.35 364.17 1499.45 360.174C1510.77 355.956 1519.76 349.851 1526.42 341.859C1533.08 333.645 1536.41 323.655 1536.41 311.889C1536.41 300.123 1531.97 290.577 1523.09 283.251C1514.43 275.925 1499.78 270.153 1479.13 265.935L1440.84 257.943C1426.19 254.835 1414.42 250.95 1405.54 246.288C1396.66 241.404 1390.11 235.521 1385.89 228.639C1381.9 221.757 1379.9 213.432 1379.9 203.664C1379.9 193.23 1383.01 183.573 1389.22 174.693C1395.44 165.591 1404.32 158.265 1415.86 152.715C1427.41 147.165 1441.28 144.39 1457.49 144.39ZM1724.38 147.72V152.382H1640.13V367.5H1634.8V152.382H1550.55V147.72H1724.38ZM1760.99 367.5V147.72H1906.51V152.382H1766.32V252.948H1878.87V257.61H1766.32V362.838H1912.17V367.5H1760.99ZM2150.94 147.72V367.5H2145.61V174.36L2145.94 155.379L2056.36 367.5H2049.7L1960.13 155.379L1960.46 174.36V367.5H1955.13V147.72H1962.13L2049.04 351.516L2053.03 361.173L2057.03 351.849L2143.94 147.72H2150.94Z" fill="#7919FF"/>
<path d="M401.323 367.773V147.993H546.844V152.655H406.651V253.221H519.205V257.883H406.651V363.111H552.505V367.773H401.323ZM758.474 312.828C754.922 325.038 749.039 335.583 740.825 344.463C732.833 353.121 722.954 359.781 711.188 364.443C699.644 368.883 686.435 371.103 671.561 371.103C652.247 371.103 635.264 366.552 620.612 357.45C605.96 348.126 594.527 335.028 586.313 318.156C578.099 301.284 573.992 281.193 573.992 257.883C573.992 234.573 577.988 214.482 585.98 197.61C594.194 180.738 605.627 167.751 620.279 158.649C634.931 149.325 652.025 144.663 671.561 144.663C687.101 144.663 700.532 146.883 711.854 151.323C723.176 155.541 732.611 161.979 740.159 170.637C747.707 179.073 753.257 189.729 756.809 202.605L751.814 204.936C746.264 186.288 736.829 172.413 723.509 163.311C710.411 153.987 693.095 149.325 671.561 149.325C653.135 149.325 636.929 153.765 622.943 162.645C609.179 171.525 598.412 184.068 590.642 200.274C583.094 216.48 579.32 235.683 579.32 257.883C579.32 280.083 583.205 299.286 590.975 315.492C598.745 331.698 609.512 344.241 623.276 353.121C637.262 362.001 653.357 366.441 671.561 366.441C692.651 366.441 710.3 361.557 724.508 351.789C738.716 342.021 748.373 328.368 753.479 310.83L758.474 312.828ZM890.48 144.663C911.126 144.663 928.886 149.325 943.76 158.649C958.856 167.751 970.4 180.738 978.392 197.61C986.606 214.482 990.713 234.573 990.713 257.883C990.713 281.193 986.606 301.284 978.392 318.156C970.4 335.028 958.856 348.126 943.76 357.45C928.886 366.552 911.126 371.103 890.48 371.103C870.056 371.103 852.296 366.552 837.2 357.45C822.104 348.126 810.449 335.028 802.235 318.156C794.243 301.284 790.247 281.193 790.247 257.883C790.247 234.573 794.243 214.482 802.235 197.61C810.449 180.738 822.104 167.751 837.2 158.649C852.296 149.325 870.056 144.663 890.48 144.663ZM890.48 149.325C871.166 149.325 854.405 153.765 840.197 162.645C825.989 171.525 815 184.068 807.23 200.274C799.46 216.48 795.575 235.683 795.575 257.883C795.575 280.083 799.46 299.286 807.23 315.492C815 331.698 825.989 344.241 840.197 353.121C854.405 362.001 871.166 366.441 890.48 366.441C910.016 366.441 926.777 362.001 940.763 353.121C954.971 344.241 965.96 331.698 973.73 315.492C981.5 299.286 985.385 280.083 985.385 257.883C985.385 235.683 981.5 216.48 973.73 200.274C965.96 184.068 954.971 171.525 940.763 162.645C926.777 153.765 910.016 149.325 890.48 149.325ZM1107.55 144.663C1128.42 144.663 1145.74 148.77 1159.5 156.984C1173.26 164.976 1182.7 177.852 1187.8 195.612L1183.48 198.942C1179.04 181.848 1170.27 169.305 1157.17 161.313C1144.07 153.321 1127.53 149.325 1107.55 149.325C1092.9 149.325 1080.13 151.767 1069.26 156.651C1058.6 161.535 1050.28 168.084 1044.28 176.298C1038.29 184.512 1035.29 193.725 1035.29 203.937C1035.29 216.813 1039.62 227.136 1048.28 234.906C1056.94 242.676 1071.92 248.781 1093.23 253.221L1131.53 261.213C1153.28 265.653 1168.71 271.869 1177.81 279.861C1187.14 287.853 1191.8 298.62 1191.8 312.162C1191.8 323.928 1188.36 334.251 1181.48 343.131C1174.82 352.011 1165.49 358.893 1153.51 363.777C1141.74 368.661 1127.98 371.103 1112.21 371.103C1096.9 371.103 1082.91 368.994 1070.26 364.776C1057.82 360.558 1047.5 354.12 1039.29 345.462C1031.07 336.804 1025.74 325.815 1023.3 312.495L1028.3 309.831C1030.3 322.707 1035.18 333.363 1042.95 341.799C1050.72 350.235 1060.6 356.451 1072.59 360.447C1084.57 364.443 1097.78 366.441 1112.21 366.441C1125.98 366.441 1138.41 364.443 1149.51 360.447C1160.83 356.229 1169.82 350.124 1176.48 342.132C1183.14 333.918 1186.47 323.928 1186.47 312.162C1186.47 300.396 1182.03 290.85 1173.15 283.524C1164.49 276.198 1149.84 270.426 1129.2 266.208L1090.9 258.216C1076.25 255.108 1064.48 251.223 1055.6 246.561C1046.72 241.677 1040.17 235.794 1035.96 228.912C1031.96 222.03 1029.96 213.705 1029.96 203.937C1029.96 193.503 1033.07 183.846 1039.29 174.966C1045.5 165.864 1054.38 158.538 1065.93 152.988C1077.47 147.438 1091.35 144.663 1107.55 144.663ZM1366.67 147.993L1289.42 282.525V367.773H1284.09V282.525L1206.83 147.993H1213.16L1256.12 223.251L1286.75 276.864L1317.39 223.251L1360.35 147.993H1366.67ZM1464.62 144.663C1485.48 144.663 1502.8 148.77 1516.56 156.984C1530.33 164.976 1539.76 177.852 1544.87 195.612L1540.54 198.942C1536.1 181.848 1527.33 169.305 1514.23 161.313C1501.13 153.321 1484.6 149.325 1464.62 149.325C1449.96 149.325 1437.2 151.767 1426.32 156.651C1415.66 161.535 1407.34 168.084 1401.35 176.298C1395.35 184.512 1392.35 193.725 1392.35 203.937C1392.35 216.813 1396.68 227.136 1405.34 234.906C1414 242.676 1428.98 248.781 1450.3 253.221L1488.59 261.213C1510.35 265.653 1525.78 271.869 1534.88 279.861C1544.2 287.853 1548.86 298.62 1548.86 312.162C1548.86 323.928 1545.42 334.251 1538.54 343.131C1531.88 352.011 1522.56 358.893 1510.57 363.777C1498.8 368.661 1485.04 371.103 1469.28 371.103C1453.96 371.103 1439.97 368.994 1427.32 364.776C1414.89 360.558 1404.56 354.12 1396.35 345.462C1388.14 336.804 1382.81 325.815 1380.37 312.495L1385.36 309.831C1387.36 322.707 1392.24 333.363 1400.01 341.799C1407.78 350.235 1417.66 356.451 1429.65 360.447C1441.64 364.443 1454.85 366.441 1469.28 366.441C1483.04 366.441 1495.47 364.443 1506.57 360.447C1517.9 356.229 1526.89 350.124 1533.55 342.132C1540.21 333.918 1543.54 323.928 1543.54 312.162C1543.54 300.396 1539.1 290.85 1530.22 283.524C1521.56 276.198 1506.91 270.426 1486.26 266.208L1447.97 258.216C1433.31 255.108 1421.55 251.223 1412.67 246.561C1403.79 241.677 1397.24 235.794 1393.02 228.912C1389.02 222.03 1387.03 213.705 1387.03 203.937C1387.03 193.503 1390.13 183.846 1396.35 174.966C1402.57 165.864 1411.45 158.538 1422.99 152.988C1434.53 147.438 1448.41 144.663 1464.62 144.663ZM1731.51 147.993V152.655H1647.26V367.773H1641.93V152.655H1557.68V147.993H1731.51ZM1768.12 367.773V147.993H1913.64V152.655H1773.45V253.221H1886V257.883H1773.45V363.111H1919.3V367.773H1768.12ZM2158.06 147.993V367.773H2152.74V174.633L2153.07 155.652L2063.49 367.773H2056.83L1967.26 155.652L1967.59 174.633V367.773H1962.26V147.993H1969.25L2056.17 351.789L2060.16 361.446L2064.16 352.122L2151.07 147.993H2158.06Z" fill="#32E685"/>
</svg>
