<svg width="1000" height="215" viewBox="0 0 1000 215" fill="none" xmlns="http://www.w3.org/2000/svg">
<path d="M384.71 43.6522L400.884 10.7681H428.13L400.478 59.8116L428.87 109.681H401.362L384.725 76.1884L368.087 109.681H340.638L368.971 59.8116L341.391 10.7681H368.565L384.739 43.6522H384.71Z" fill="white"/>
<path d="M471.29 74.6956H458.377V109.681H434.536V10.7681H473.464C485.188 10.7681 494.362 13.3623 500.971 18.5652C507.58 23.7681 510.884 31.1159 510.884 40.6232C510.884 47.5072 509.493 53.2029 506.71 57.7246C503.928 62.2464 499.565 65.913 493.638 68.7101L514.29 108.652V109.667H488.754L471.29 74.6812V74.6956ZM458.377 56.3623H473.464C477.986 56.3623 481.406 55.1739 483.681 52.7826C485.971 50.4058 487.116 47.0725 487.116 42.8116C487.116 38.5507 485.957 35.2029 483.652 32.7681C481.348 30.3333 477.942 29.1304 473.464 29.1304H458.377V56.3768V56.3623Z" fill="white"/>
<path d="M546.348 76.1304V109.696H522.507V10.7681H561.971C569.536 10.7681 576.232 12.1594 582.043 14.942C587.855 17.7246 592.362 21.6956 595.565 26.8261C598.768 31.9565 600.348 37.7971 600.348 44.3188C600.348 53.971 596.899 61.6812 589.985 67.4493C583.072 73.2174 573.609 76.1159 561.551 76.1159H546.333L546.348 76.1304ZM546.348 57.7101H561.971C566.594 57.7101 570.116 56.5507 572.536 54.2464C574.956 51.942 576.174 48.6812 576.174 44.4638C576.174 39.8406 574.928 36.1594 572.435 33.3913C569.942 30.6232 566.551 29.2174 562.246 29.1739H546.348V57.7101Z" fill="white"/>
<path d="M635.522 91.3478H677.029V109.696H611.681V10.7681H635.522V91.3333V91.3478Z" fill="white"/>
<path d="M777.507 67.7101H740V91.3478H784.29V109.696H716.145V10.7681H784.42V29.1739H739.986V50.029H777.493V67.6956L777.507 67.7101Z" fill="white"/>
<path d="M835.188 82.7826L854.884 10.7681H881.522L848.232 109.681H822.145L789.13 10.7681H815.551L835.188 82.7826Z" fill="white"/>
<path d="M919.333 10.7681L941.406 79.5797L963.42 10.7681H994.812V109.681H970.899V86.5797L973.203 39.3043L949.29 109.681H933.522L909.536 39.2319L911.841 86.5797V109.681H888V10.7681H919.319H919.333Z" fill="white"/>
<path d="M381.217 192.304C381.217 189.536 380.246 187.406 378.304 185.913C376.362 184.42 372.855 182.913 367.797 181.377C362.725 179.855 358.71 178.159 355.71 176.29C349.986 172.696 347.116 168 347.116 162.217C347.116 157.145 349.174 152.986 353.304 149.696C357.435 146.42 362.797 144.768 369.391 144.768C373.768 144.768 377.667 145.58 381.087 147.188C384.507 148.797 387.203 151.101 389.159 154.072C391.116 157.043 392.101 160.348 392.101 163.971H381.217C381.217 160.696 380.188 158.116 378.13 156.261C376.072 154.406 373.13 153.478 369.304 153.478C365.739 153.478 362.971 154.246 361 155.768C359.029 157.29 358.043 159.42 358.043 162.159C358.043 164.464 359.101 166.377 361.232 167.928C363.362 169.464 366.87 170.971 371.768 172.42C376.667 173.87 380.594 175.522 383.551 177.391C386.507 179.246 388.681 181.377 390.072 183.783C391.464 186.188 392.145 189 392.145 192.217C392.145 197.449 390.145 201.623 386.116 204.71C382.101 207.797 376.652 209.348 369.783 209.348C365.232 209.348 361.058 208.507 357.246 206.826C353.435 205.145 350.464 202.812 348.348 199.855C346.232 196.899 345.174 193.435 345.174 189.493H356.101C356.101 193.058 357.275 195.826 359.638 197.783C362 199.739 365.377 200.725 369.783 200.725C373.58 200.725 376.435 199.957 378.348 198.42C380.261 196.884 381.217 194.841 381.217 192.319V192.304Z" fill="white"/>
<path d="M412.362 208.493H401.478V145.638H412.362V208.493Z" fill="white"/>
<path d="M424.899 208.493V145.638H443.464C449.014 145.638 453.942 146.87 458.246 149.348C462.551 151.826 465.884 155.333 468.246 159.884C470.609 164.435 471.783 169.638 471.783 175.507V178.652C471.783 184.609 470.594 189.841 468.217 194.362C465.841 198.884 462.464 202.362 458.072 204.812C453.681 207.261 448.652 208.478 442.986 208.478H424.899V208.493ZM435.826 154.449V199.768H442.942C448.667 199.768 453.058 197.971 456.13 194.391C459.188 190.812 460.754 185.667 460.812 178.957V175.464C460.812 168.638 459.333 163.435 456.362 159.841C453.391 156.246 449.101 154.449 443.449 154.449H435.812H435.826Z" fill="white"/>
<path d="M518.507 180.435H492.696V199.768H522.87V208.493H481.768V145.638H522.565V154.449H492.696V171.797H518.507V180.435Z" fill="white"/>
<path d="M578.826 188.029C578.188 194.739 575.725 199.971 571.406 203.725C567.087 207.478 561.348 209.362 554.188 209.362C549.174 209.362 544.768 208.174 540.957 205.797C537.145 203.42 534.203 200.043 532.13 195.681C530.058 191.304 528.986 186.232 528.899 180.449V174.58C528.899 168.652 529.942 163.435 532.043 158.913C534.145 154.391 537.159 150.913 541.087 148.464C545.015 146.015 549.551 144.797 554.71 144.797C561.652 144.797 567.232 146.681 571.464 150.435C575.696 154.188 578.159 159.507 578.841 166.391H567.957C567.435 161.87 566.116 158.609 564 156.609C561.884 154.609 558.783 153.609 554.696 153.609C549.942 153.609 546.304 155.348 543.754 158.812C541.203 162.275 539.899 167.377 539.841 174.087V179.667C539.841 186.464 541.058 191.652 543.493 195.217C545.928 198.783 549.493 200.58 554.174 200.58C558.464 200.58 561.681 199.609 563.841 197.681C566 195.754 567.362 192.551 567.942 188.058H578.826V188.029Z" fill="white"/>
<path d="M637.609 208.493H626.725V180.609H598.623V208.493H587.696V145.638H598.623V171.797H626.725V145.638H637.609V208.493Z" fill="white"/>
<path d="M685.58 193.855H661.232L656.13 208.493H644.783L668.522 145.638H678.319L702.101 208.493H690.71L685.58 193.855ZM664.304 185.043H682.522L673.406 158.971L664.304 185.043Z" fill="white"/>
<path d="M719.884 208.493H709V145.638H719.884V208.493Z" fill="white"/>
<path d="M782.275 208.493H771.348L743.333 163.899V208.493H732.406V145.638H743.333L771.435 190.406V145.638H782.275V208.493Z" fill="white"/>
<path d="M155.696 115.377C174.058 115.377 191.87 121.87 205.435 134.594L281.449 205.797H245L187.362 151.826C178.884 143.913 167.58 139.681 155.71 139.681C143.841 139.681 132.536 143.913 124.058 151.826L66.4203 205.797H29.971L105.986 134.594C119.551 121.884 137.348 115.377 155.725 115.377H155.696ZM155.696 98.4348C137.333 98.4348 119.522 91.942 105.957 79.2174L29.9565 8H66.4058L124.043 61.971C132.522 69.8841 143.826 74.1159 155.696 74.1159C167.565 74.1159 178.87 69.8841 187.348 61.971L244.985 8H281.435L205.42 79.2029C191.855 91.9131 174.058 98.4203 155.681 98.4203L155.696 98.4348Z" fill="white"/>
<path d="M92.1159 106.913L12.7101 174.159C6.78261 179.522 0 176.986 0 169.072V44.7391C0 36.8261 6.78261 34.2899 12.7101 39.6522L92.1159 106.899V106.913Z" fill="white"/>
</svg>
